<svg width="160" height="141" viewBox="0 0 160 141" fill="none" xmlns="http://www.w3.org/2000/svg">
<g opacity="0.1">
<path d="M89.1894 140.678C138.447 140.678 178.379 138.346 178.379 135.47C178.379 132.595 138.447 130.263 89.1894 130.263C39.9315 130.263 0 132.595 0 135.47C0 138.346 39.9315 140.678 89.1894 140.678Z" fill="#BDC5D4" style="fill:#BDC5D4;fill:color(display-p3 0.7412 0.7725 0.8314);fill-opacity:1;"/>
</g>
<path d="M155.71 61.1069H86.1162V63.0758H155.71V61.1069Z" fill="#093770" style="fill:#093770;fill:color(display-p3 0.0353 0.2157 0.4392);fill-opacity:1;"/>
<path opacity="0.2" d="M155.71 61.1069H139.56V63.0758H155.71V61.1069Z" fill="black" style="fill:black;fill-opacity:1;"/>
<path d="M141.555 136.62L137.921 63.071H138.832L142.466 136.62H141.555Z" fill="#093770" style="fill:#093770;fill:color(display-p3 0.0353 0.2157 0.4392);fill-opacity:1;"/>
<path opacity="0.7" d="M141.555 136.62L137.921 63.071H138.832L142.466 136.62H141.555Z" fill="white" style="fill:white;fill-opacity:1;"/>
<path d="M157.706 136.62L154.068 63.071H154.983L158.617 136.62H157.706Z" fill="#093770" style="fill:#093770;fill:color(display-p3 0.0353 0.2157 0.4392);fill-opacity:1;"/>
<path d="M157.706 136.62L154.068 63.071H154.983L158.617 136.62H157.706Z" fill="#093770" style="fill:#093770;fill:color(display-p3 0.0353 0.2157 0.4392);fill-opacity:1;"/>
<path opacity="0.7" d="M157.706 136.62L154.068 63.071H154.983L158.617 136.62H157.706Z" fill="white" style="fill:white;fill-opacity:1;"/>
<path d="M100.266 136.62L103.905 63.071H102.989L99.3555 136.62H100.266Z" fill="#093770" style="fill:#093770;fill:color(display-p3 0.0353 0.2157 0.4392);fill-opacity:1;"/>
<path opacity="0.7" d="M100.266 136.62L103.905 63.071H102.989L99.3555 136.62H100.266Z" fill="white" style="fill:white;fill-opacity:1;"/>
<path d="M84.12 136.62L87.754 63.071H86.8432L83.2046 136.62H84.12Z" fill="#093770" style="fill:#093770;fill:color(display-p3 0.0353 0.2157 0.4392);fill-opacity:1;"/>
<path opacity="0.7" d="M84.12 136.62L87.754 63.071H86.8432L83.2046 136.62H84.12Z" fill="white" style="fill:white;fill-opacity:1;"/>
<path d="M127.093 46.12H149.449C149.615 46.1156 149.779 46.1483 149.93 46.2159C150.081 46.2835 150.215 46.3842 150.322 46.5105C150.429 46.6368 150.506 46.7855 150.547 46.9457C150.589 47.1058 150.594 47.2732 150.562 47.4356L148.681 59.8096C148.618 60.1692 148.433 60.4962 148.158 60.7358C147.882 60.9753 147.533 61.1128 147.168 61.1252H124.812C124.646 61.1295 124.482 61.0967 124.331 61.0291C124.179 60.9616 124.045 60.861 123.938 60.7348C123.831 60.6086 123.753 60.46 123.711 60.2999C123.669 60.1398 123.663 59.9723 123.694 59.8096L125.575 47.4356C125.64 47.076 125.826 46.7494 126.102 46.5101C126.378 46.2708 126.728 46.1331 127.093 46.12V46.12Z" fill="#093770" style="fill:#093770;fill:color(display-p3 0.0353 0.2157 0.4392);fill-opacity:1;"/>
<path d="M126.748 46.12H149.122C149.288 46.1156 149.452 46.1483 149.603 46.2159C149.754 46.2835 149.888 46.3842 149.995 46.5105C150.102 46.6368 150.179 46.7855 150.221 46.9457C150.262 47.1058 150.267 47.2732 150.236 47.4356L148.354 59.8096C148.291 60.1692 148.106 60.4962 147.831 60.7358C147.555 60.9753 147.206 61.1128 146.841 61.1252H124.466C124.301 61.1295 124.137 61.0967 123.985 61.0291C123.834 60.9616 123.7 60.861 123.593 60.7348C123.486 60.6086 123.408 60.46 123.366 60.2999C123.324 60.1398 123.318 59.9723 123.349 59.8096L125.23 47.4356C125.294 47.0756 125.48 46.7486 125.756 46.5091C126.032 46.2696 126.383 46.1323 126.748 46.12V46.12Z" fill="#093770" style="fill:#093770;fill:color(display-p3 0.0353 0.2157 0.4392);fill-opacity:1;"/>
<path opacity="0.2" d="M126.872 46.0004H150.968C151.147 45.9959 151.323 46.0287 151.486 46.0963C151.649 46.1638 151.793 46.2645 151.908 46.3907C152.023 46.517 152.106 46.6656 152.151 46.8257C152.196 46.9858 152.202 47.1532 152.167 47.3155L150.141 59.6846C150.073 60.044 149.874 60.3709 149.577 60.6103C149.281 60.8497 148.904 60.9872 148.511 60.9996H124.414C124.236 61.0039 124.059 60.9711 123.896 60.9036C123.733 60.836 123.589 60.7355 123.474 60.6094C123.358 60.4832 123.274 60.3347 123.229 60.1747C123.183 60.0146 123.177 59.8471 123.211 59.6846L125.237 47.3155C125.306 46.9556 125.506 46.6287 125.803 46.3893C126.101 46.1499 126.478 46.0127 126.872 46.0004V46.0004Z" fill="white" style="fill:white;fill-opacity:1;"/>
<path opacity="0.8" d="M124.467 60.7113C124.36 60.7143 124.254 60.694 124.157 60.6519C124.059 60.6098 123.972 60.5468 123.901 60.4675C123.831 60.3827 123.78 60.2836 123.752 60.1771C123.724 60.0706 123.72 59.9594 123.74 59.8511L125.621 47.5001C125.672 47.2339 125.81 46.9924 126.015 46.8146C126.219 46.6368 126.478 46.5332 126.748 46.5203H149.123C149.229 46.5173 149.335 46.5376 149.432 46.5797C149.53 46.6218 149.617 46.6848 149.688 46.7641C149.758 46.8493 149.808 46.9486 149.835 47.055C149.862 47.1615 149.865 47.2726 149.845 47.3805L147.968 59.7545C147.918 60.0207 147.779 60.2622 147.575 60.44C147.37 60.6178 147.112 60.7214 146.841 60.7343L124.467 60.7113Z" fill="white" style="fill:white;fill-opacity:1;"/>
<path d="M117.935 60.6147H147.609C147.671 60.6129 147.733 60.625 147.79 60.6502C147.846 60.6754 147.897 60.713 147.937 60.7603C147.977 60.8075 148.006 60.8632 148.022 60.9232C148.037 60.9832 148.04 61.046 148.028 61.1069H117.364C117.388 60.9719 117.458 60.8493 117.562 60.7597C117.666 60.67 117.798 60.6189 117.935 60.6147Z" fill="#093770" style="fill:#093770;fill:color(display-p3 0.0353 0.2157 0.4392);fill-opacity:1;"/>
<path d="M128.713 51.512C128.748 51.512 128.774 51.52 128.793 51.536C128.804 51.5453 128.806 51.5573 128.799 51.572C128.794 51.5867 128.789 51.604 128.785 51.624C128.78 51.6533 128.772 51.7033 128.763 51.774C128.755 51.8447 128.75 51.9207 128.747 52.002C128.747 52.0087 128.743 52.014 128.735 52.018C128.727 52.0207 128.72 52.022 128.713 52.022C128.706 52.022 128.699 52.0207 128.691 52.018C128.683 52.014 128.679 52.0087 128.679 52.002C128.675 51.9207 128.669 51.8447 128.661 51.774C128.654 51.7033 128.648 51.6533 128.643 51.624C128.64 51.604 128.635 51.5867 128.627 51.572C128.62 51.5573 128.622 51.5453 128.633 51.536C128.652 51.52 128.678 51.512 128.713 51.512ZM128.893 51.536C128.912 51.52 128.938 51.512 128.973 51.512C129.008 51.512 129.034 51.52 129.053 51.536C129.064 51.5453 129.066 51.5573 129.059 51.572C129.054 51.5867 129.049 51.604 129.045 51.624C129.04 51.6533 129.032 51.7033 129.023 51.774C129.015 51.8447 129.01 51.9207 129.007 52.002C129.007 52.0087 129.003 52.014 128.995 52.018C128.987 52.0207 128.98 52.022 128.973 52.022C128.966 52.022 128.959 52.0207 128.951 52.018C128.943 52.014 128.939 52.0087 128.939 52.002C128.935 51.9207 128.929 51.8447 128.921 51.774C128.914 51.7033 128.908 51.6533 128.903 51.624C128.9 51.604 128.895 51.5867 128.887 51.572C128.88 51.5573 128.882 51.5453 128.893 51.536ZM129.201 51.71C129.186 51.7073 129.179 51.698 129.181 51.682C129.182 51.6647 129.191 51.656 129.209 51.656H129.617C129.633 51.656 129.641 51.6647 129.641 51.682C129.641 51.6993 129.634 51.7087 129.621 51.71C129.602 51.7113 129.579 51.7147 129.553 51.72C129.527 51.7253 129.506 51.7347 129.489 51.748C129.471 51.7613 129.466 51.7813 129.473 51.808L129.721 52.752L130.083 51.726C130.093 51.6927 130.104 51.6707 130.115 51.66C130.127 51.6493 130.147 51.6473 130.177 51.654L130.461 52.754L130.809 51.812C130.819 51.784 130.816 51.7633 130.799 51.75C130.783 51.7367 130.761 51.7273 130.733 51.722C130.706 51.7167 130.681 51.7127 130.659 51.71C130.641 51.7073 130.634 51.698 130.637 51.682C130.641 51.6647 130.649 51.656 130.663 51.656H131.041C131.055 51.656 131.063 51.664 131.065 51.68C131.066 51.696 131.059 51.7053 131.045 51.708C131.025 51.712 131.003 51.7187 130.979 51.728C130.955 51.736 130.935 51.7587 130.921 51.796L130.479 52.992C130.449 53.0053 130.425 53.0053 130.407 52.992C130.389 52.9773 130.377 52.9573 130.371 52.932L130.111 51.93L129.737 52.996C129.71 53.0053 129.687 53.004 129.667 52.992C129.648 52.98 129.635 52.96 129.629 52.932L129.331 51.796C129.321 51.76 129.306 51.738 129.285 51.73C129.265 51.722 129.237 51.7153 129.201 51.71ZM131.233 52.998L131.273 51.73C131.27 51.7287 131.266 51.7287 131.261 51.73C131.255 51.73 131.247 51.7333 131.237 51.74C131.183 51.7693 131.138 51.764 131.101 51.724C131.123 51.7093 131.151 51.6913 131.183 51.67C131.216 51.6473 131.247 51.6273 131.277 51.61C131.306 51.5913 131.325 51.58 131.335 51.576C131.353 51.5693 131.369 51.57 131.381 51.578C131.394 51.5847 131.4 51.5967 131.399 51.614L131.373 52.39C131.39 52.3233 131.421 52.262 131.465 52.206C131.509 52.1487 131.559 52.1027 131.617 52.068C131.675 52.0333 131.732 52.0167 131.787 52.018C131.824 52.018 131.859 52.0253 131.891 52.04C131.924 52.0533 131.951 52.0773 131.971 52.112C131.991 52.1453 131.999 52.1933 131.995 52.256L131.963 52.836C131.961 52.852 131.963 52.8673 131.969 52.882C131.975 52.8953 131.989 52.902 132.011 52.902C132.024 52.902 132.041 52.896 132.061 52.884C132.082 52.872 132.101 52.8553 132.117 52.834C132.123 52.8247 132.131 52.8213 132.141 52.824C132.151 52.8267 132.155 52.8347 132.153 52.848C132.145 52.8893 132.122 52.928 132.085 52.964C132.049 52.9987 132.006 53.016 131.957 53.016C131.917 53.016 131.887 53.0033 131.867 52.978C131.847 52.9513 131.837 52.922 131.839 52.89L131.873 52.252C131.875 52.22 131.867 52.1927 131.847 52.17C131.828 52.146 131.791 52.1333 131.737 52.132C131.711 52.132 131.679 52.1407 131.639 52.158C131.599 52.1753 131.558 52.2033 131.517 52.242C131.477 52.2793 131.442 52.328 131.413 52.388C131.385 52.448 131.369 52.5207 131.367 52.606L131.357 52.908C131.355 52.9533 131.345 52.9813 131.325 52.992C131.306 53.0013 131.275 53.0033 131.233 52.998ZM132.698 52.918C132.751 52.922 132.798 52.9153 132.84 52.898C132.882 52.8807 132.918 52.8587 132.948 52.832C132.977 52.8053 132.998 52.7813 133.012 52.76C133.018 52.748 133.029 52.7407 133.044 52.738C133.06 52.7353 133.073 52.7393 133.084 52.75C133.08 52.7633 133.07 52.7847 133.054 52.814C133.038 52.842 133.014 52.8713 132.982 52.902C132.951 52.9327 132.912 52.9593 132.864 52.982C132.816 53.0033 132.759 53.014 132.694 53.014C132.608 53.014 132.532 52.9947 132.464 52.956C132.396 52.9173 132.342 52.8633 132.304 52.794C132.266 52.7233 132.249 52.6433 132.252 52.554C132.254 52.4687 132.272 52.392 132.306 52.324C132.339 52.256 132.382 52.1987 132.434 52.152C132.486 52.104 132.543 52.068 132.606 52.044C132.668 52.0187 132.73 52.006 132.79 52.006C132.847 52.006 132.894 52.0153 132.93 52.034C132.967 52.0513 132.996 52.0727 133.018 52.098C133.039 52.1233 133.054 52.1487 133.062 52.174C133.071 52.198 133.076 52.218 133.076 52.234C133.076 52.286 133.059 52.334 133.026 52.378C132.994 52.422 132.95 52.46 132.896 52.492C132.842 52.524 132.782 52.5487 132.716 52.566C132.649 52.582 132.581 52.59 132.512 52.59C132.488 52.59 132.472 52.5833 132.464 52.57C132.456 52.5553 132.454 52.542 132.458 52.53C132.507 52.53 132.559 52.5227 132.614 52.508C132.67 52.4933 132.722 52.4733 132.772 52.448C132.821 52.4213 132.861 52.392 132.892 52.36C132.924 52.3267 132.94 52.2927 132.94 52.258C132.94 52.2073 132.924 52.1667 132.892 52.136C132.861 52.104 132.82 52.0873 132.77 52.086C132.702 52.0847 132.64 52.1047 132.586 52.146C132.532 52.1873 132.489 52.242 132.456 52.31C132.424 52.3767 132.406 52.4493 132.402 52.528C132.399 52.596 132.408 52.6587 132.43 52.716C132.452 52.7733 132.486 52.82 132.532 52.856C132.577 52.892 132.632 52.9127 132.698 52.918ZM133.206 52.162C133.229 52.1473 133.256 52.1293 133.288 52.108C133.32 52.0853 133.35 52.0647 133.378 52.046C133.407 52.0273 133.427 52.0167 133.436 52.014C133.455 52.0073 133.471 52.008 133.486 52.016C133.501 52.0227 133.507 52.0347 133.506 52.052L133.482 52.532C133.501 52.4307 133.531 52.3433 133.572 52.27C133.615 52.1967 133.661 52.1387 133.71 52.096C133.759 52.052 133.803 52.0247 133.84 52.014C133.856 52.0087 133.869 52.0087 133.878 52.014C133.889 52.018 133.899 52.026 133.91 52.038C133.931 52.062 133.943 52.0893 133.944 52.12C133.945 52.1507 133.933 52.168 133.906 52.172C133.897 52.1733 133.887 52.1727 133.878 52.17C133.87 52.166 133.863 52.1627 133.856 52.16C133.823 52.1573 133.785 52.172 133.742 52.204C133.699 52.236 133.658 52.2847 133.618 52.35C133.578 52.414 133.543 52.4933 133.514 52.588C133.486 52.6813 133.469 52.7887 133.464 52.91C133.463 52.9447 133.453 52.9693 133.434 52.984C133.415 52.9987 133.383 53.0033 133.338 52.998L133.378 52.168C133.375 52.1667 133.371 52.1667 133.366 52.168C133.361 52.168 133.353 52.1713 133.342 52.178C133.289 52.206 133.243 52.2007 133.206 52.162ZM134.459 52.918C134.513 52.922 134.56 52.9153 134.601 52.898C134.644 52.8807 134.68 52.8587 134.709 52.832C134.739 52.8053 134.76 52.7813 134.773 52.76C134.78 52.748 134.791 52.7407 134.805 52.738C134.821 52.7353 134.835 52.7393 134.845 52.75C134.841 52.7633 134.831 52.7847 134.815 52.814C134.799 52.842 134.775 52.8713 134.743 52.902C134.713 52.9327 134.673 52.9593 134.625 52.982C134.577 53.0033 134.521 53.014 134.455 53.014C134.37 53.014 134.293 52.9947 134.225 52.956C134.157 52.9173 134.104 52.8633 134.065 52.794C134.028 52.7233 134.011 52.6433 134.013 52.554C134.016 52.4687 134.034 52.392 134.067 52.324C134.101 52.256 134.143 52.1987 134.195 52.152C134.247 52.104 134.305 52.068 134.367 52.044C134.43 52.0187 134.491 52.006 134.551 52.006C134.609 52.006 134.655 52.0153 134.691 52.034C134.729 52.0513 134.758 52.0727 134.779 52.098C134.801 52.1233 134.815 52.1487 134.823 52.174C134.833 52.198 134.837 52.218 134.837 52.234C134.837 52.286 134.821 52.334 134.787 52.378C134.755 52.422 134.712 52.46 134.657 52.492C134.604 52.524 134.544 52.5487 134.477 52.566C134.411 52.582 134.343 52.59 134.273 52.59C134.249 52.59 134.233 52.5833 134.225 52.57C134.217 52.5553 134.215 52.542 134.219 52.53C134.269 52.53 134.321 52.5227 134.375 52.508C134.431 52.4933 134.484 52.4733 134.533 52.448C134.583 52.4213 134.623 52.392 134.653 52.36C134.685 52.3267 134.701 52.2927 134.701 52.258C134.701 52.2073 134.685 52.1667 134.653 52.136C134.623 52.104 134.582 52.0873 134.531 52.086C134.463 52.0847 134.402 52.1047 134.347 52.146C134.294 52.1873 134.251 52.242 134.217 52.31C134.185 52.3767 134.167 52.4493 134.163 52.528C134.161 52.596 134.17 52.6587 134.191 52.716C134.214 52.7733 134.248 52.82 134.293 52.856C134.339 52.892 134.394 52.9127 134.459 52.918ZM136.52 52.998L135.618 52.994C135.606 52.994 135.598 52.988 135.594 52.976C135.594 52.972 135.595 52.9673 135.596 52.962C135.599 52.9553 135.603 52.9513 135.608 52.95C135.615 52.9473 135.622 52.9453 135.628 52.944C135.635 52.9427 135.641 52.9413 135.646 52.94C135.666 52.9347 135.69 52.9233 135.716 52.906C135.744 52.8887 135.759 52.8667 135.76 52.84L135.814 51.822C135.816 51.7873 135.8 51.76 135.768 51.74C135.738 51.72 135.708 51.706 135.678 51.698C135.661 51.6927 135.656 51.6827 135.664 51.668C135.667 51.6613 135.672 51.6573 135.678 51.656C135.686 51.6547 135.693 51.654 135.698 51.654L136.582 51.65C136.616 51.65 136.632 51.6673 136.63 51.702L136.618 51.936C136.617 51.9547 136.608 51.964 136.592 51.964C136.578 51.964 136.569 51.958 136.566 51.946C136.556 51.8847 136.543 51.8393 136.528 51.81C136.514 51.7793 136.488 51.7593 136.452 51.75C136.418 51.7393 136.363 51.734 136.288 51.734H135.89C135.924 51.7393 135.942 51.7533 135.944 51.776C135.948 51.7987 135.95 51.82 135.948 51.84L135.926 52.276H136.17C136.22 52.276 136.258 52.2693 136.284 52.256C136.312 52.2427 136.335 52.22 136.352 52.188C136.359 52.1773 136.369 52.1727 136.382 52.174C136.397 52.1753 136.404 52.1867 136.402 52.208L136.39 52.432C136.389 52.4533 136.382 52.464 136.368 52.464C136.355 52.4627 136.346 52.4573 136.34 52.448C136.326 52.4173 136.306 52.394 136.28 52.378C136.255 52.362 136.219 52.354 136.172 52.354H135.922L135.894 52.906H136.228C136.303 52.906 136.359 52.902 136.396 52.894C136.435 52.886 136.463 52.8673 136.48 52.838C136.499 52.8087 136.515 52.7627 136.528 52.7C136.531 52.688 136.54 52.6833 136.554 52.686C136.57 52.6873 136.578 52.6973 136.576 52.716L136.564 52.942C136.563 52.9633 136.559 52.978 136.552 52.986C136.546 52.994 136.535 52.998 136.52 52.998ZM136.838 53.022C136.803 53.0287 136.771 53.018 136.74 52.99C136.725 52.9753 136.715 52.9593 136.708 52.942C136.701 52.9247 136.705 52.9093 136.718 52.896C136.729 52.8853 136.745 52.8813 136.766 52.884C136.789 52.8867 136.807 52.89 136.822 52.894C136.831 52.8953 136.841 52.8947 136.85 52.892C136.861 52.8893 136.871 52.8853 136.88 52.88C136.923 52.856 136.968 52.8213 137.016 52.776C137.064 52.7293 137.116 52.6733 137.172 52.608L136.876 52.18C136.865 52.1787 136.852 52.1873 136.836 52.206C136.827 52.2193 136.811 52.2287 136.79 52.234C136.769 52.2393 136.745 52.2333 136.72 52.216C136.736 52.1973 136.753 52.1767 136.772 52.154C136.792 52.13 136.811 52.108 136.828 52.088C136.847 52.0667 136.86 52.052 136.868 52.044C136.893 52.0187 136.915 52.0193 136.932 52.046L137.25 52.516C137.305 52.444 137.347 52.3747 137.378 52.308C137.41 52.2413 137.431 52.1827 137.44 52.132C137.439 52.1267 137.434 52.1233 137.426 52.122C137.419 52.1207 137.413 52.1173 137.406 52.112C137.397 52.1053 137.393 52.096 137.394 52.084C137.395 52.072 137.402 52.06 137.414 52.048C137.43 52.032 137.45 52.0207 137.474 52.014C137.498 52.006 137.519 52.0047 137.538 52.01C137.557 52.0153 137.566 52.0287 137.566 52.05C137.566 52.098 137.553 52.1553 137.526 52.222C137.501 52.2887 137.468 52.356 137.428 52.424C137.389 52.4907 137.349 52.55 137.308 52.602L137.482 52.86C137.489 52.8707 137.497 52.88 137.508 52.888C137.519 52.896 137.531 52.9 137.544 52.9C137.565 52.9 137.583 52.8927 137.598 52.878C137.614 52.862 137.624 52.84 137.628 52.812C137.635 52.8093 137.643 52.812 137.654 52.82C137.666 52.828 137.672 52.8407 137.672 52.858C137.671 52.9073 137.654 52.9467 137.622 52.976C137.59 53.004 137.558 53.0187 137.526 53.02C137.481 53.0227 137.441 52.9987 137.406 52.948L137.232 52.694C137.153 52.7833 137.079 52.858 137.008 52.918C136.937 52.978 136.881 53.0127 136.838 53.022ZM138.025 53.228L138.021 53.324C138.019 53.3627 138.01 53.3913 137.993 53.41C137.977 53.43 137.943 53.4373 137.891 53.432L137.931 52.412C137.889 52.4787 137.857 52.5507 137.833 52.628C137.825 52.628 137.816 52.6233 137.807 52.614C137.797 52.6033 137.796 52.5847 137.803 52.558C137.816 52.5073 137.834 52.4587 137.857 52.412C137.879 52.364 137.905 52.32 137.935 52.28L137.943 52.086C137.943 52.0527 137.956 52.0287 137.983 52.014C138.011 51.9993 138.037 51.9987 138.063 52.012L138.059 52.148C138.112 52.1013 138.168 52.0667 138.227 52.044C138.285 52.0213 138.341 52.0133 138.395 52.02C138.471 52.028 138.533 52.0567 138.583 52.106C138.632 52.1553 138.667 52.2173 138.689 52.292C138.71 52.3667 138.715 52.4473 138.705 52.534C138.697 52.61 138.675 52.6813 138.641 52.748C138.606 52.8133 138.563 52.8687 138.513 52.914C138.462 52.9593 138.407 52.99 138.349 53.006C138.311 53.0153 138.269 53.018 138.221 53.014C138.173 53.0113 138.133 52.9987 138.101 52.976C138.086 52.9653 138.079 52.954 138.081 52.942C138.082 52.93 138.085 52.9213 138.089 52.916C138.123 52.9387 138.165 52.95 138.213 52.95C138.261 52.95 138.308 52.9353 138.355 52.906C138.404 52.8753 138.447 52.8307 138.485 52.772C138.523 52.7133 138.549 52.6433 138.561 52.562C138.571 52.4873 138.57 52.4187 138.557 52.356C138.543 52.2933 138.52 52.242 138.487 52.202C138.453 52.1607 138.411 52.136 138.361 52.128C138.313 52.1187 138.262 52.126 138.209 52.15C138.155 52.1727 138.104 52.208 138.055 52.256L138.025 53.228ZM139.303 52.918C139.356 52.922 139.404 52.9153 139.445 52.898C139.488 52.8807 139.524 52.8587 139.553 52.832C139.582 52.8053 139.604 52.7813 139.617 52.76C139.624 52.748 139.634 52.7407 139.649 52.738C139.665 52.7353 139.678 52.7393 139.689 52.75C139.685 52.7633 139.675 52.7847 139.659 52.814C139.643 52.842 139.619 52.8713 139.587 52.902C139.556 52.9327 139.517 52.9593 139.469 52.982C139.421 53.0033 139.364 53.014 139.299 53.014C139.214 53.014 139.137 52.9947 139.069 52.956C139.001 52.9173 138.948 52.8633 138.909 52.794C138.872 52.7233 138.854 52.6433 138.857 52.554C138.86 52.4687 138.878 52.392 138.911 52.324C138.944 52.256 138.987 52.1987 139.039 52.152C139.091 52.104 139.148 52.068 139.211 52.044C139.274 52.0187 139.335 52.006 139.395 52.006C139.452 52.006 139.499 52.0153 139.535 52.034C139.572 52.0513 139.602 52.0727 139.623 52.098C139.644 52.1233 139.659 52.1487 139.667 52.174C139.676 52.198 139.681 52.218 139.681 52.234C139.681 52.286 139.664 52.334 139.631 52.378C139.599 52.422 139.556 52.46 139.501 52.492C139.448 52.524 139.388 52.5487 139.321 52.566C139.254 52.582 139.186 52.59 139.117 52.59C139.093 52.59 139.077 52.5833 139.069 52.57C139.061 52.5553 139.059 52.542 139.063 52.53C139.112 52.53 139.164 52.5227 139.219 52.508C139.275 52.4933 139.328 52.4733 139.377 52.448C139.426 52.4213 139.466 52.392 139.497 52.36C139.529 52.3267 139.545 52.2927 139.545 52.258C139.545 52.2073 139.529 52.1667 139.497 52.136C139.466 52.104 139.426 52.0873 139.375 52.086C139.307 52.0847 139.246 52.1047 139.191 52.146C139.138 52.1873 139.094 52.242 139.061 52.31C139.029 52.3767 139.011 52.4493 139.007 52.528C139.004 52.596 139.014 52.6587 139.035 52.716C139.058 52.7733 139.092 52.82 139.137 52.856C139.182 52.892 139.238 52.9127 139.303 52.918ZM139.811 52.162C139.834 52.1473 139.861 52.1293 139.893 52.108C139.925 52.0853 139.955 52.0647 139.983 52.046C140.013 52.0273 140.032 52.0167 140.041 52.014C140.06 52.0073 140.077 52.008 140.091 52.016C140.106 52.0227 140.113 52.0347 140.111 52.052L140.087 52.532C140.106 52.4307 140.136 52.3433 140.177 52.27C140.22 52.1967 140.266 52.1387 140.315 52.096C140.365 52.052 140.408 52.0247 140.445 52.014C140.461 52.0087 140.474 52.0087 140.483 52.014C140.494 52.018 140.505 52.026 140.515 52.038C140.537 52.062 140.548 52.0893 140.549 52.12C140.551 52.1507 140.538 52.168 140.511 52.172C140.502 52.1733 140.493 52.1727 140.483 52.17C140.475 52.166 140.468 52.1627 140.461 52.16C140.428 52.1573 140.39 52.172 140.347 52.204C140.305 52.236 140.263 52.2847 140.223 52.35C140.183 52.414 140.149 52.4933 140.119 52.588C140.091 52.6813 140.075 52.7887 140.069 52.91C140.068 52.9447 140.058 52.9693 140.039 52.984C140.021 52.9987 139.989 53.0033 139.943 52.998L139.983 52.168C139.981 52.1667 139.977 52.1667 139.971 52.168C139.966 52.168 139.958 52.1713 139.947 52.178C139.894 52.206 139.849 52.2007 139.811 52.162ZM140.726 51.668C140.722 51.6547 140.728 51.6453 140.744 51.64C140.76 51.6333 140.781 51.632 140.806 51.636C140.832 51.64 140.856 51.6487 140.88 51.662C140.904 51.6753 140.922 51.694 140.932 51.718C140.943 51.7433 140.939 51.7693 140.92 51.796C140.902 51.8213 140.88 51.8373 140.854 51.844C140.842 51.848 140.824 51.848 140.8 51.844C140.778 51.84 140.765 51.8267 140.762 51.804C140.762 51.7933 140.76 51.7753 140.754 51.75C140.749 51.7247 140.74 51.6973 140.726 51.668ZM140.758 52.898L140.8 52.186C140.799 52.1847 140.796 52.1847 140.79 52.186C140.786 52.186 140.778 52.1893 140.764 52.196C140.711 52.224 140.667 52.2187 140.632 52.18C140.654 52.1653 140.68 52.1473 140.712 52.126C140.744 52.1033 140.774 52.0827 140.802 52.064C140.832 52.0453 140.851 52.0347 140.86 52.032C140.879 52.0253 140.895 52.0253 140.908 52.032C140.922 52.0387 140.928 52.0507 140.926 52.068L140.882 52.844C140.881 52.86 140.883 52.8753 140.888 52.89C140.895 52.9033 140.909 52.91 140.93 52.91C140.944 52.91 140.96 52.904 140.98 52.892C141.002 52.88 141.02 52.8633 141.036 52.842C141.043 52.8327 141.051 52.8293 141.06 52.832C141.071 52.8347 141.075 52.8427 141.072 52.856C141.064 52.8973 141.042 52.936 141.004 52.972C140.968 53.0067 140.926 53.024 140.876 53.024C140.836 53.024 140.806 53.0113 140.786 52.986C140.766 52.9593 140.757 52.93 140.758 52.898ZM141.647 52.918C141.7 52.922 141.748 52.9153 141.789 52.898C141.832 52.8807 141.868 52.8587 141.897 52.832C141.926 52.8053 141.948 52.7813 141.961 52.76C141.968 52.748 141.978 52.7407 141.993 52.738C142.009 52.7353 142.022 52.7393 142.033 52.75C142.029 52.7633 142.019 52.7847 142.003 52.814C141.987 52.842 141.963 52.8713 141.931 52.902C141.9 52.9327 141.861 52.9593 141.813 52.982C141.765 53.0033 141.708 53.014 141.643 53.014C141.558 53.014 141.481 52.9947 141.413 52.956C141.345 52.9173 141.292 52.8633 141.253 52.794C141.216 52.7233 141.198 52.6433 141.201 52.554C141.204 52.4687 141.222 52.392 141.255 52.324C141.288 52.256 141.331 52.1987 141.383 52.152C141.435 52.104 141.492 52.068 141.555 52.044C141.618 52.0187 141.679 52.006 141.739 52.006C141.796 52.006 141.843 52.0153 141.879 52.034C141.916 52.0513 141.946 52.0727 141.967 52.098C141.988 52.1233 142.003 52.1487 142.011 52.174C142.02 52.198 142.025 52.218 142.025 52.234C142.025 52.286 142.008 52.334 141.975 52.378C141.943 52.422 141.9 52.46 141.845 52.492C141.792 52.524 141.732 52.5487 141.665 52.566C141.598 52.582 141.53 52.59 141.461 52.59C141.437 52.59 141.421 52.5833 141.413 52.57C141.405 52.5553 141.403 52.542 141.407 52.53C141.456 52.53 141.508 52.5227 141.563 52.508C141.619 52.4933 141.672 52.4733 141.721 52.448C141.77 52.4213 141.81 52.392 141.841 52.36C141.873 52.3267 141.889 52.2927 141.889 52.258C141.889 52.2073 141.873 52.1667 141.841 52.136C141.81 52.104 141.77 52.0873 141.719 52.086C141.651 52.0847 141.59 52.1047 141.535 52.146C141.482 52.1873 141.438 52.242 141.405 52.31C141.373 52.3767 141.355 52.4493 141.351 52.528C141.348 52.596 141.358 52.6587 141.379 52.716C141.402 52.7733 141.436 52.82 141.481 52.856C141.526 52.892 141.582 52.9127 141.647 52.918ZM142.293 52.994L142.329 52.202C142.322 52.1953 142.309 52.1987 142.289 52.212C142.237 52.24 142.192 52.2347 142.155 52.196C142.178 52.1813 142.205 52.1633 142.237 52.142C142.269 52.1193 142.299 52.0987 142.327 52.08C142.356 52.0613 142.376 52.0507 142.385 52.048C142.404 52.0413 142.419 52.042 142.431 52.05C142.444 52.0567 142.45 52.0687 142.449 52.086L142.433 52.368C142.457 52.3093 142.489 52.254 142.529 52.202C142.569 52.15 142.616 52.108 142.669 52.076C142.722 52.0427 142.781 52.026 142.845 52.026C142.874 52.026 142.906 52.0333 142.939 52.048C142.972 52.0613 143 52.0853 143.023 52.12C143.046 52.1547 143.055 52.2047 143.051 52.27L143.017 52.83C143.016 52.8513 143.018 52.87 143.023 52.886C143.03 52.9007 143.044 52.908 143.065 52.908C143.08 52.908 143.096 52.9013 143.113 52.888C143.13 52.8747 143.144 52.8587 143.153 52.84C143.158 52.8307 143.166 52.8273 143.175 52.83C143.186 52.8327 143.19 52.8407 143.187 52.854C143.179 52.8927 143.159 52.9287 143.127 52.962C143.096 52.9953 143.058 53.012 143.011 53.012C142.971 53.012 142.941 52.9993 142.921 52.974C142.901 52.9473 142.892 52.918 142.893 52.886L142.927 52.27C142.93 52.2313 142.918 52.2 142.893 52.176C142.869 52.152 142.836 52.1393 142.795 52.138C142.73 52.1367 142.666 52.1633 142.603 52.218C142.542 52.2727 142.491 52.3587 142.451 52.476C142.444 52.496 142.438 52.5187 142.433 52.544C142.429 52.5693 142.426 52.5973 142.425 52.628L142.415 52.882C142.414 52.9273 142.404 52.9593 142.387 52.978C142.371 52.9953 142.34 53.0007 142.293 52.994ZM143.766 52.93C143.833 52.9287 143.89 52.9107 143.938 52.876C143.988 52.8413 144.026 52.8013 144.054 52.756C144.068 52.732 144.09 52.726 144.122 52.738C144.121 52.7527 144.112 52.7753 144.096 52.806C144.082 52.8367 144.059 52.8687 144.028 52.902C143.999 52.934 143.961 52.962 143.914 52.986C143.868 53.0087 143.812 53.0207 143.748 53.022C143.658 53.0233 143.578 53.004 143.51 52.964C143.442 52.9227 143.39 52.8673 143.352 52.798C143.316 52.7287 143.3 52.652 143.302 52.568C143.305 52.48 143.322 52.4013 143.352 52.332C143.384 52.2627 143.425 52.204 143.474 52.156C143.525 52.108 143.58 52.072 143.638 52.048C143.698 52.0227 143.757 52.01 143.814 52.01C143.89 52.01 143.952 52.0233 144 52.05C144.048 52.0753 144.084 52.1047 144.106 52.138C144.129 52.17 144.14 52.196 144.14 52.216C144.14 52.2333 144.134 52.2507 144.12 52.268C144.108 52.2853 144.094 52.2993 144.076 52.31C144.059 52.3207 144.043 52.326 144.028 52.326C144.015 52.326 144.006 52.3173 144.002 52.3C144.001 52.292 144.002 52.2833 144.004 52.274C144.007 52.2647 144.008 52.2573 144.008 52.252C143.999 52.2027 143.977 52.164 143.942 52.136C143.908 52.1067 143.866 52.0913 143.816 52.09C143.755 52.0873 143.697 52.1067 143.642 52.148C143.588 52.188 143.543 52.2427 143.508 52.312C143.474 52.38 143.454 52.4567 143.45 52.542C143.448 52.6073 143.459 52.67 143.484 52.73C143.51 52.79 143.546 52.8387 143.594 52.876C143.644 52.912 143.701 52.93 143.766 52.93ZM144.717 52.918C144.771 52.922 144.818 52.9153 144.859 52.898C144.902 52.8807 144.938 52.8587 144.967 52.832C144.997 52.8053 145.018 52.7813 145.031 52.76C145.038 52.748 145.049 52.7407 145.063 52.738C145.079 52.7353 145.093 52.7393 145.103 52.75C145.099 52.7633 145.089 52.7847 145.073 52.814C145.057 52.842 145.033 52.8713 145.001 52.902C144.971 52.9327 144.931 52.9593 144.883 52.982C144.835 53.0033 144.779 53.014 144.713 53.014C144.628 53.014 144.551 52.9947 144.483 52.956C144.415 52.9173 144.362 52.8633 144.323 52.794C144.286 52.7233 144.269 52.6433 144.271 52.554C144.274 52.4687 144.292 52.392 144.325 52.324C144.359 52.256 144.401 52.1987 144.453 52.152C144.505 52.104 144.563 52.068 144.625 52.044C144.688 52.0187 144.749 52.006 144.809 52.006C144.867 52.006 144.913 52.0153 144.949 52.034C144.987 52.0513 145.016 52.0727 145.037 52.098C145.059 52.1233 145.073 52.1487 145.081 52.174C145.091 52.198 145.095 52.218 145.095 52.234C145.095 52.286 145.079 52.334 145.045 52.378C145.013 52.422 144.97 52.46 144.915 52.492C144.862 52.524 144.802 52.5487 144.735 52.566C144.669 52.582 144.601 52.59 144.531 52.59C144.507 52.59 144.491 52.5833 144.483 52.57C144.475 52.5553 144.473 52.542 144.477 52.53C144.527 52.53 144.579 52.5227 144.633 52.508C144.689 52.4933 144.742 52.4733 144.791 52.448C144.841 52.4213 144.881 52.392 144.911 52.36C144.943 52.3267 144.959 52.2927 144.959 52.258C144.959 52.2073 144.943 52.1667 144.911 52.136C144.881 52.104 144.84 52.0873 144.789 52.086C144.721 52.0847 144.66 52.1047 144.605 52.146C144.552 52.1873 144.509 52.242 144.475 52.31C144.443 52.3767 144.425 52.4493 144.421 52.528C144.419 52.596 144.428 52.6587 144.449 52.716C144.472 52.7733 144.506 52.82 144.551 52.856C144.597 52.892 144.652 52.9127 144.717 52.918ZM139.103 53.86C139.106 53.82 139.092 53.7893 139.061 53.768C139.032 53.7453 138.998 53.7307 138.959 53.724C138.949 53.7213 138.941 53.716 138.935 53.708C138.931 53.6987 138.932 53.69 138.937 53.682C138.947 53.6727 138.958 53.668 138.971 53.668H139.391C139.397 53.668 139.402 53.6693 139.407 53.672C139.413 53.6733 139.416 53.6767 139.417 53.682C139.423 53.69 139.423 53.6987 139.417 53.708C139.413 53.716 139.406 53.7213 139.395 53.724C139.354 53.7307 139.318 53.7453 139.287 53.768C139.258 53.7893 139.242 53.82 139.239 53.86L139.183 54.906H139.525C139.581 54.906 139.625 54.904 139.657 54.9C139.691 54.896 139.717 54.888 139.735 54.876C139.755 54.8627 139.771 54.8427 139.783 54.816C139.797 54.788 139.81 54.7507 139.823 54.704C139.827 54.6893 139.837 54.6833 139.851 54.686C139.867 54.6873 139.875 54.6973 139.873 54.716L139.861 54.95C139.86 54.982 139.845 54.998 139.817 54.998L138.891 54.994C138.874 54.994 138.865 54.986 138.863 54.97C138.863 54.9527 138.87 54.9433 138.883 54.942C138.905 54.938 138.928 54.932 138.953 54.924C138.979 54.9147 139.001 54.9033 139.019 54.89C139.038 54.8753 139.048 54.8587 139.049 54.84L139.103 53.86ZM140.44 54.918C140.493 54.922 140.54 54.9153 140.582 54.898C140.624 54.8807 140.66 54.8587 140.69 54.832C140.719 54.8053 140.74 54.7813 140.754 54.76C140.76 54.748 140.771 54.7407 140.786 54.738C140.802 54.7353 140.815 54.7393 140.826 54.75C140.822 54.7633 140.812 54.7847 140.796 54.814C140.78 54.842 140.756 54.8713 140.724 54.902C140.693 54.9327 140.654 54.9593 140.606 54.982C140.558 55.0033 140.501 55.014 140.436 55.014C140.35 55.014 140.274 54.9947 140.206 54.956C140.138 54.9173 140.084 54.8633 140.046 54.794C140.008 54.7233 139.991 54.6433 139.994 54.554C139.996 54.4687 140.014 54.392 140.048 54.324C140.081 54.256 140.124 54.1987 140.176 54.152C140.228 54.104 140.285 54.068 140.348 54.044C140.41 54.0187 140.472 54.006 140.532 54.006C140.589 54.006 140.636 54.0153 140.672 54.034C140.709 54.0513 140.738 54.0727 140.76 54.098C140.781 54.1233 140.796 54.1487 140.804 54.174C140.813 54.198 140.818 54.218 140.818 54.234C140.818 54.286 140.801 54.334 140.768 54.378C140.736 54.422 140.692 54.46 140.638 54.492C140.584 54.524 140.524 54.5487 140.458 54.566C140.391 54.582 140.323 54.59 140.254 54.59C140.23 54.59 140.214 54.5833 140.206 54.57C140.198 54.5553 140.196 54.542 140.2 54.53C140.249 54.53 140.301 54.5227 140.356 54.508C140.412 54.4933 140.464 54.4733 140.514 54.448C140.563 54.4213 140.603 54.392 140.634 54.36C140.666 54.3267 140.682 54.2927 140.682 54.258C140.682 54.2073 140.666 54.1667 140.634 54.136C140.603 54.104 140.562 54.0873 140.512 54.086C140.444 54.0847 140.382 54.1047 140.328 54.146C140.274 54.1873 140.231 54.242 140.198 54.31C140.166 54.3767 140.148 54.4493 140.144 54.528C140.141 54.596 140.15 54.6587 140.172 54.716C140.194 54.7733 140.228 54.82 140.274 54.856C140.319 54.892 140.374 54.9127 140.44 54.918ZM141.314 55.022C141.258 55.022 141.205 55.0067 141.154 54.976C141.103 54.944 141.062 54.898 141.03 54.838C140.998 54.778 140.982 54.706 140.982 54.622C140.982 54.5473 140.995 54.4747 141.022 54.404C141.05 54.332 141.088 54.2673 141.136 54.21C141.184 54.1527 141.239 54.1067 141.302 54.072C141.366 54.0373 141.435 54.02 141.508 54.02C141.583 54.02 141.645 54.0327 141.694 54.058C141.745 54.082 141.78 54.1047 141.8 54.126L141.776 54.842C141.775 54.858 141.777 54.8733 141.782 54.888C141.789 54.9013 141.803 54.908 141.824 54.908C141.837 54.908 141.854 54.902 141.874 54.89C141.895 54.878 141.914 54.8613 141.93 54.84C141.937 54.8307 141.945 54.8273 141.954 54.83C141.965 54.8327 141.969 54.8407 141.966 54.854C141.958 54.8953 141.935 54.934 141.898 54.97C141.862 55.0047 141.819 55.022 141.77 55.022C141.73 55.022 141.7 55.0093 141.68 54.984C141.66 54.9573 141.651 54.928 141.652 54.896L141.66 54.688C141.645 54.7387 141.622 54.79 141.59 54.842C141.558 54.894 141.519 54.9373 141.472 54.972C141.425 55.0053 141.373 55.022 141.314 55.022ZM141.128 54.624C141.128 54.6733 141.136 54.7213 141.152 54.768C141.168 54.8133 141.192 54.8507 141.224 54.88C141.256 54.9093 141.295 54.924 141.34 54.924C141.381 54.924 141.421 54.9093 141.458 54.88C141.495 54.8507 141.529 54.8127 141.558 54.766C141.589 54.718 141.613 54.6667 141.632 54.612C141.651 54.5573 141.661 54.5047 141.664 54.454L141.672 54.276C141.673 54.2547 141.673 54.2373 141.67 54.224C141.669 54.2107 141.665 54.1987 141.658 54.188C141.643 54.164 141.621 54.1433 141.59 54.126C141.559 54.1087 141.525 54.1 141.486 54.1C141.43 54.1 141.379 54.1167 141.334 54.15C141.29 54.1833 141.253 54.2267 141.222 54.28C141.191 54.3333 141.168 54.3907 141.152 54.452C141.136 54.512 141.128 54.5693 141.128 54.624ZM142.416 55.014C142.364 55.014 142.311 54.9987 142.256 54.968C142.203 54.9373 142.157 54.892 142.12 54.832C142.084 54.7707 142.066 54.6953 142.066 54.606C142.066 54.538 142.077 54.4693 142.1 54.4C142.124 54.3293 142.158 54.2647 142.202 54.206C142.246 54.146 142.299 54.0987 142.362 54.064C142.425 54.028 142.495 54.0107 142.574 54.012C142.614 54.0133 142.647 54.0213 142.672 54.036C142.699 54.0493 142.718 54.0627 142.73 54.076C142.741 54.088 142.747 54.1007 142.75 54.114C142.753 54.126 142.745 54.1373 142.726 54.148C142.711 54.128 142.69 54.1133 142.662 54.104C142.635 54.0947 142.609 54.09 142.582 54.09C142.517 54.09 142.461 54.1073 142.414 54.142C142.367 54.1767 142.329 54.2207 142.298 54.274C142.269 54.326 142.247 54.3807 142.232 54.438C142.219 54.494 142.212 54.544 142.212 54.588C142.212 54.6493 142.221 54.7053 142.238 54.756C142.255 54.8053 142.281 54.8453 142.316 54.876C142.351 54.9053 142.393 54.92 142.442 54.92C142.489 54.92 142.532 54.9073 142.572 54.882C142.612 54.8553 142.647 54.8213 142.678 54.78C142.71 54.7387 142.735 54.6953 142.754 54.65C142.773 54.6033 142.783 54.5607 142.784 54.522L142.812 53.734C142.811 53.7327 142.807 53.7327 142.802 53.734C142.798 53.734 142.789 53.7373 142.776 53.744C142.723 53.772 142.679 53.7667 142.644 53.728C142.665 53.7133 142.692 53.6953 142.724 53.674C142.756 53.6513 142.786 53.6307 142.814 53.612C142.843 53.5933 142.863 53.5827 142.872 53.58C142.891 53.5733 142.907 53.5733 142.92 53.58C142.933 53.5867 142.939 53.5987 142.938 53.616L142.894 54.842C142.893 54.858 142.895 54.8733 142.9 54.888C142.907 54.9013 142.921 54.908 142.942 54.908C142.955 54.908 142.973 54.902 142.994 54.89C143.015 54.878 143.034 54.8613 143.05 54.84C143.057 54.8307 143.065 54.8273 143.074 54.83C143.083 54.8327 143.087 54.8407 143.084 54.854C143.076 54.8953 143.053 54.934 143.016 54.97C142.98 55.0047 142.937 55.022 142.888 55.022C142.848 55.022 142.818 55.0093 142.798 54.984C142.778 54.9573 142.769 54.928 142.77 54.896L142.776 54.734C142.757 54.778 142.731 54.8213 142.696 54.864C142.661 54.9067 142.621 54.9427 142.574 54.972C142.527 55 142.475 55.014 142.416 55.014ZM143.376 54.238C143.376 54.274 143.386 54.304 143.408 54.328C143.43 54.3507 143.46 54.3713 143.498 54.39C143.535 54.4087 143.575 54.4293 143.618 54.452C143.663 54.4747 143.71 54.4993 143.758 54.526C143.806 54.5513 143.846 54.5833 143.878 54.622C143.91 54.6593 143.924 54.7073 143.922 54.766C143.92 54.818 143.902 54.8653 143.868 54.908C143.833 54.9493 143.788 54.9813 143.732 55.004C143.677 55.028 143.616 55.0393 143.55 55.038C143.468 55.0367 143.4 55.0207 143.346 54.99C143.291 54.9593 143.249 54.9227 143.22 54.88C143.192 54.836 143.176 54.7953 143.174 54.758C143.171 54.714 143.198 54.688 143.256 54.68C143.298 54.6733 143.326 54.68 143.338 54.7C143.344 54.7093 143.344 54.72 143.338 54.732C143.332 54.744 143.326 54.7573 143.32 54.772C143.322 54.8 143.332 54.8287 143.35 54.858C143.367 54.886 143.392 54.91 143.426 54.93C143.46 54.95 143.503 54.9607 143.554 54.962C143.623 54.9633 143.68 54.946 143.724 54.91C143.768 54.8727 143.79 54.8287 143.792 54.778C143.793 54.738 143.78 54.706 143.754 54.682C143.728 54.6567 143.696 54.6347 143.656 54.616C143.616 54.596 143.575 54.5753 143.534 54.554C143.494 54.5327 143.452 54.51 143.408 54.486C143.365 54.4607 143.328 54.4293 143.298 54.392C143.268 54.3547 143.254 54.3073 143.256 54.25C143.257 54.1993 143.274 54.1553 143.306 54.118C143.338 54.0793 143.381 54.0493 143.436 54.028C143.49 54.0067 143.551 53.9973 143.618 54C143.684 54.0027 143.738 54.0167 143.78 54.042C143.822 54.066 143.854 54.0933 143.876 54.124C143.897 54.1547 143.908 54.18 143.91 54.2C143.911 54.2107 143.908 54.2253 143.902 54.244C143.896 54.2613 143.878 54.2773 143.848 54.292C143.83 54.3 143.814 54.3033 143.8 54.302C143.785 54.2993 143.776 54.2913 143.774 54.278C143.772 54.2687 143.773 54.2593 143.776 54.25C143.78 54.2393 143.784 54.2293 143.79 54.22C143.792 54.2107 143.788 54.1947 143.776 54.172C143.764 54.1493 143.744 54.128 143.716 54.108C143.688 54.088 143.65 54.0773 143.604 54.076C143.533 54.0733 143.478 54.0887 143.438 54.122C143.398 54.154 143.377 54.1927 143.376 54.238ZM144.212 54.846C144.208 54.8327 144.214 54.824 144.23 54.82C144.247 54.8147 144.268 54.8147 144.292 54.82C144.316 54.8253 144.338 54.836 144.36 54.852C144.381 54.868 144.396 54.89 144.404 54.918C144.412 54.9487 144.407 54.976 144.39 55C144.374 55.0253 144.35 55.0413 144.318 55.048C144.3 55.0507 144.28 55.0487 144.258 55.042C144.235 55.0353 144.224 55.0207 144.226 54.998C144.227 54.9833 144.227 54.9627 144.226 54.936C144.226 54.9093 144.221 54.8793 144.212 54.846ZM144.758 53.512C144.793 53.512 144.819 53.52 144.838 53.536C144.849 53.5453 144.851 53.5573 144.844 53.572C144.839 53.5867 144.834 53.604 144.83 53.624C144.825 53.6533 144.817 53.7033 144.808 53.774C144.8 53.8447 144.795 53.9207 144.792 54.002C144.792 54.0087 144.788 54.014 144.78 54.018C144.772 54.0207 144.765 54.022 144.758 54.022C144.751 54.022 144.744 54.0207 144.736 54.018C144.728 54.014 144.724 54.0087 144.724 54.002C144.72 53.9207 144.714 53.8447 144.706 53.774C144.699 53.7033 144.693 53.6533 144.688 53.624C144.685 53.604 144.68 53.5867 144.672 53.572C144.665 53.5573 144.667 53.5453 144.678 53.536C144.697 53.52 144.723 53.512 144.758 53.512ZM144.938 53.536C144.957 53.52 144.983 53.512 145.018 53.512C145.053 53.512 145.079 53.52 145.098 53.536C145.109 53.5453 145.111 53.5573 145.104 53.572C145.099 53.5867 145.094 53.604 145.09 53.624C145.085 53.6533 145.077 53.7033 145.068 53.774C145.06 53.8447 145.055 53.9207 145.052 54.002C145.052 54.0087 145.048 54.014 145.04 54.018C145.032 54.0207 145.025 54.022 145.018 54.022C145.011 54.022 145.004 54.0207 144.996 54.018C144.988 54.014 144.984 54.0087 144.984 54.002C144.98 53.9207 144.974 53.8447 144.966 53.774C144.959 53.7033 144.953 53.6533 144.948 53.624C144.945 53.604 144.94 53.5867 144.932 53.572C144.925 53.5573 144.927 53.5453 144.938 53.536Z" fill="black" style="fill:black;fill-opacity:1;"/>
<path d="M93.4495 130.659L90.5193 132.31L86.8945 125.291L89.8247 123.639L93.4495 130.659Z" fill="#FFB573" style="fill:#FFB573;fill:color(display-p3 1.0000 0.7098 0.4510);fill-opacity:1;"/>
<path d="M90.1649 131.731L93.5781 130.052C93.6059 130.036 93.6364 130.027 93.6679 130.023C93.6994 130.02 93.7312 130.023 93.7616 130.032C93.792 130.041 93.8203 130.055 93.8449 130.075C93.8695 130.096 93.8898 130.12 93.9047 130.148L95.3951 132.766C95.466 132.907 95.4783 133.071 95.4292 133.222C95.3801 133.373 95.2737 133.498 95.1329 133.571C93.9323 134.132 93.3297 134.343 91.8301 135.079C90.9101 135.539 88.7067 136.666 87.4325 137.297C86.1583 137.927 85.5925 136.643 86.0525 136.262C88.2237 134.56 89.1989 133.272 89.7325 132.172C89.8214 131.979 89.9742 131.823 90.1649 131.731Z" fill="#264949" style="fill:#264949;fill:color(display-p3 0.1490 0.2863 0.2863);fill-opacity:1;"/>
<path opacity="0.2" d="M89.8247 123.639L86.8945 125.291L88.7621 128.911L91.7843 127.43L89.8247 123.639Z" fill="black" style="fill:black;fill-opacity:1;"/>
<path d="M87.4373 54.8279C87.4373 54.8279 77.9751 73.8489 75.1369 83.1363C72.0319 93.3069 86.7841 127.729 86.7841 127.729L92.1708 125.369C92.1708 125.369 82.5107 91.2783 84.1897 87.4971C88.7897 77.0551 99.5354 55.0487 99.5354 55.0487L87.4373 54.8279Z" fill="#263238" style="fill:#263238;fill:color(display-p3 0.1490 0.1961 0.2196);fill-opacity:1;"/>
<path opacity="0.3" d="M90.9977 66.2313C88.4171 70.5599 87.3177 78.3615 87.1567 83.4353C88.6149 80.2981 90.1789 77.0321 91.6417 73.9961C92.6261 71.1027 93.5829 68.3151 94.4753 65.9277C94.2775 64.2763 92.9527 62.9423 90.9977 66.2313Z" fill="black" style="fill:black;fill-opacity:1;"/>
<path d="M92.865 125.769L86.9817 128.851L85.2935 126.859L92.2579 123.152L92.865 125.769Z" fill="#093770" style="fill:#093770;fill:color(display-p3 0.0353 0.2157 0.4392);fill-opacity:1;"/>
<path d="M89.3462 132.789C89.6148 132.647 89.8677 132.477 90.1006 132.283C90.1135 132.274 90.1231 132.261 90.128 132.246C90.133 132.231 90.1331 132.215 90.1282 132.2C90.1245 132.185 90.1163 132.172 90.1048 132.162C90.0932 132.152 90.0789 132.146 90.0638 132.145C89.935 132.122 88.785 131.956 88.486 132.287C88.4521 132.325 88.4281 132.37 88.416 132.419C88.404 132.468 88.4043 132.519 88.417 132.568C88.4315 132.644 88.4648 132.714 88.5139 132.774C88.5629 132.833 88.6261 132.88 88.6976 132.908C88.9212 132.95 89.1522 132.907 89.3462 132.789V132.789ZM89.8568 132.273C89.3646 132.651 88.9598 132.83 88.7482 132.761C88.7013 132.742 88.6603 132.71 88.6296 132.67C88.5988 132.629 88.5795 132.581 88.5734 132.531C88.5657 132.508 88.5642 132.483 88.569 132.458C88.5739 132.434 88.5849 132.412 88.601 132.393C88.762 132.218 89.3922 132.223 89.8568 132.273V132.273Z" fill="#093770" style="fill:#093770;fill:color(display-p3 0.0353 0.2157 0.4392);fill-opacity:1;"/>
<path d="M90.1098 132.292C90.1209 132.287 90.1304 132.279 90.1374 132.269C90.1453 132.257 90.1496 132.244 90.1496 132.23C90.1496 132.216 90.1453 132.202 90.1374 132.191C90.1374 132.154 89.7648 131.248 89.3094 131.1C89.252 131.081 89.1908 131.076 89.1309 131.085C89.0709 131.093 89.0139 131.116 88.9644 131.151C88.9037 131.182 88.8554 131.232 88.8278 131.294C88.8001 131.356 88.7947 131.426 88.8126 131.491C88.9046 131.855 89.6682 132.269 90.0592 132.301L90.1098 132.292ZM89.0886 131.266C89.1174 131.253 89.1488 131.246 89.1806 131.246C89.2124 131.246 89.2438 131.253 89.2726 131.266C89.544 131.353 89.8108 131.841 89.9442 132.131C89.5716 132.039 89.0242 131.708 88.9736 131.464C88.9736 131.418 88.9736 131.358 89.0564 131.298L89.0886 131.266Z" fill="#093770" style="fill:#093770;fill:color(display-p3 0.0353 0.2157 0.4392);fill-opacity:1;"/>
<path d="M93.8355 29.3254C93.2467 30.5168 92.6533 31.5656 91.9955 32.642C91.3377 33.7184 90.6707 34.7534 89.9347 35.7746C89.5759 36.2898 89.1941 36.7912 88.8215 37.2972C88.4489 37.8032 88.0395 38.2954 87.6163 38.7784C86.7866 39.7745 85.8972 40.7192 84.9529 41.6074C84.7229 41.8374 84.4515 42.0674 84.2031 42.2744C83.9537 42.5038 83.6927 42.7203 83.4211 42.923L82.5885 43.5394C82.4965 43.5992 82.5195 43.5946 82.2389 43.7786C82.0186 43.9167 81.7842 44.0308 81.5397 44.119C81.0472 44.2944 80.5216 44.3569 80.0017 44.3019C79.4818 44.247 78.9808 44.076 78.5359 43.8016C78.3096 43.6596 78.0998 43.493 77.9103 43.3048C77.8167 43.2091 77.7292 43.1077 77.6481 43.0012C77.5805 42.9199 77.519 42.8338 77.4641 42.7436C77.2534 42.3848 77.0689 42.0112 76.9121 41.6258C76.6435 40.9632 76.4281 40.2802 76.2681 39.5834C75.9902 38.3259 75.8042 37.0499 75.7115 35.7654C75.6155 34.5151 75.5909 33.2603 75.6379 32.0072C75.6509 31.6509 75.792 31.3112 76.0353 31.0506C76.2787 30.79 76.6078 30.6258 76.9624 30.5884C77.317 30.5509 77.6732 30.6426 77.9656 30.8466C78.258 31.0506 78.467 31.3533 78.5543 31.699V31.7496C79.0681 33.9603 79.7273 36.1347 80.5277 38.2586C80.7047 38.7108 80.9185 39.1478 81.1671 39.565C81.2589 39.7265 81.3635 39.8803 81.4799 40.025C81.5121 40.071 81.4799 39.9836 81.4293 39.9468C81.3952 39.9001 81.3584 39.8556 81.3189 39.8134C81.2378 39.7258 81.1449 39.65 81.0429 39.588C80.8552 39.4635 80.6409 39.3847 80.4173 39.358C80.2008 39.3317 79.9812 39.3521 79.7733 39.4178C79.5801 39.4592 79.2627 39.703 79.4743 39.5236L80.0263 38.9992C80.3897 38.6404 80.7577 38.254 81.1119 37.863C82.5517 36.1678 83.8691 34.3724 85.0541 32.4902C85.6613 31.5334 86.2639 30.5582 86.8435 29.5784C87.4231 28.5986 88.0119 27.5682 88.5271 26.639L88.5639 26.5746C88.9299 25.878 89.5576 25.3553 90.309 25.1215C91.0604 24.8877 91.8739 24.962 92.5705 25.328C93.2671 25.694 93.7898 26.3217 94.0236 27.0731C94.2574 27.8245 94.1831 28.638 93.8171 29.3346L93.8355 29.3254Z" fill="#263238" style="fill:#263238;fill:color(display-p3 0.1490 0.1961 0.2196);fill-opacity:1;"/>
<path opacity="0.3" d="M85.712 37.38C85.4276 38.7423 85.2736 40.1285 85.252 41.52C85.4038 41.3728 85.5464 41.2256 85.689 41.06C86.8201 39.9049 87.8728 38.6755 88.84 37.38C89.2417 36.8525 89.6281 36.3159 89.9992 35.77C90.2292 35.1858 90.4592 34.6016 90.634 34.0082C90.6984 33.8104 90.7582 33.6218 90.818 33.424C89.323 32.6788 86.609 33.4102 85.712 37.38Z" fill="black" style="fill:black;fill-opacity:1;"/>
<path d="M78.1776 30.5122L77.805 28.134L74.8472 29.514C75.0704 30.2986 75.3693 31.0596 75.7396 31.7864C75.8247 31.9571 75.9491 32.105 76.1025 32.2182C76.2559 32.3314 76.434 32.4066 76.6222 32.4376C76.8103 32.4686 77.0031 32.4545 77.1847 32.3965C77.3664 32.3384 77.5316 32.2382 77.667 32.1038V32.1038C77.8755 31.9004 78.0311 31.649 78.1201 31.3715C78.2091 31.0941 78.2288 30.7991 78.1776 30.5122Z" fill="#FFB573" style="fill:#FFB573;fill:color(display-p3 1.0000 0.7098 0.4510);fill-opacity:1;"/>
<path d="M76.1396 26.5378L73.9316 28.0605L74.847 29.4957L77.8048 28.134L76.1396 26.5378Z" fill="#FFB573" style="fill:#FFB573;fill:color(display-p3 1.0000 0.7098 0.4510);fill-opacity:1;"/>
<path d="M84.056 135.121L80.7578 134.367L82.0826 126.625L85.3808 127.379L84.056 135.121Z" fill="#FFB573" style="fill:#FFB573;fill:color(display-p3 1.0000 0.7098 0.4510);fill-opacity:1;"/>
<path d="M80.6706 133.943L84.3782 134.794C84.4094 134.8 84.4392 134.811 84.4659 134.829C84.4925 134.846 84.5155 134.868 84.5335 134.894C84.5515 134.92 84.5641 134.95 84.5706 134.981C84.5771 135.012 84.5774 135.044 84.5714 135.075L84.0792 138.051C84.045 138.206 83.9509 138.342 83.8174 138.428C83.6838 138.514 83.5217 138.544 83.3662 138.511C82.0828 138.189 81.4848 137.973 79.8518 137.591C78.849 137.361 76.0614 136.832 74.6768 136.515C73.2922 136.197 73.6464 134.836 74.2628 134.845C77.0228 134.895 78.9594 134.532 80.0588 134.012C80.2493 133.922 80.4647 133.897 80.6706 133.943V133.943Z" fill="#264949" style="fill:#264949;fill:color(display-p3 0.1490 0.2863 0.2863);fill-opacity:1;"/>
<path opacity="0.2" d="M85.3811 127.384L82.0783 126.625L81.3975 130.618L84.7003 131.372L85.3811 127.384Z" fill="black" style="fill:black;fill-opacity:1;"/>
<path d="M94.0472 54.9475C94.0472 54.9475 88.5962 77.6255 86.9632 87.1981C85.1784 97.6769 80.2012 129.343 80.2012 129.343L86.2456 130.723C86.2456 130.723 93.7896 100.534 96.499 90.3721C99.443 79.3321 105.543 65.9921 105.543 55.1591C101.89 55.1591 94.0472 54.9475 94.0472 54.9475Z" fill="#263238" style="fill:#263238;fill:color(display-p3 0.1490 0.1961 0.2196);fill-opacity:1;"/>
<path d="M86.4893 130.783L79.1201 129.095L79.2857 126.717L87.2483 128.92L86.4893 130.783Z" fill="#093770" style="fill:#093770;fill:color(display-p3 0.0353 0.2157 0.4392);fill-opacity:1;"/>
<path d="M79.3691 134.251C79.672 134.312 79.9804 134.339 80.2891 134.334C80.3044 134.334 80.3194 134.33 80.3324 134.322C80.3454 134.314 80.3559 134.302 80.3627 134.288C80.3714 134.275 80.376 134.26 80.376 134.245C80.376 134.229 80.3714 134.214 80.3627 134.201C80.2753 134.104 79.4887 133.253 79.0471 133.318C78.9968 133.326 78.9493 133.347 78.9091 133.378C78.8689 133.409 78.8373 133.45 78.8171 133.497C78.7783 133.563 78.7578 133.639 78.7578 133.716C78.7578 133.792 78.7783 133.868 78.8171 133.934C78.9574 134.102 79.1532 134.215 79.3691 134.251ZM80.0913 134.173C79.4749 134.173 79.0425 134.04 78.9229 133.851C78.8979 133.807 78.8848 133.757 78.8848 133.706C78.8848 133.656 78.8979 133.606 78.9229 133.561C78.9329 133.539 78.9481 133.519 78.9673 133.504C78.9866 133.489 79.0092 133.479 79.0333 133.474C79.2771 133.437 79.7647 133.842 80.0913 134.173V134.173Z" fill="#093770" style="fill:#093770;fill:color(display-p3 0.0353 0.2157 0.4392);fill-opacity:1;"/>
<path d="M80.2613 134.334H80.2981C80.311 134.332 80.3229 134.325 80.3326 134.316C80.3423 134.308 80.3495 134.296 80.3533 134.284C80.3533 134.247 80.6569 133.313 80.3947 132.904C80.3621 132.853 80.3182 132.81 80.2663 132.779C80.2144 132.748 80.156 132.729 80.0957 132.724C80.0293 132.71 79.9601 132.719 79.8998 132.75C79.8394 132.781 79.7916 132.832 79.7645 132.894C79.6035 133.235 79.9393 134.035 80.2245 134.307L80.2613 134.334ZM80.1141 132.89C80.1452 132.897 80.1746 132.909 80.2007 132.927C80.2267 132.946 80.2489 132.969 80.2659 132.996C80.3803 133.353 80.3803 133.738 80.2659 134.095C80.0113 133.776 79.8909 133.37 79.9301 132.963C79.9301 132.922 79.9853 132.871 80.1003 132.885L80.1141 132.89Z" fill="#093770" style="fill:#093770;fill:color(display-p3 0.0353 0.2157 0.4392);fill-opacity:1;"/>
<path d="M89.3644 27.3474C89.55 26.7841 89.8836 26.2811 90.3303 25.891C90.7771 25.5009 91.3204 25.2382 91.9036 25.1302C92.7422 24.9458 93.5919 24.8167 94.4474 24.7438C97.0132 24.6426 99.5827 24.6887 102.143 24.8818C103.482 24.9738 104.848 25.1624 105.938 25.3418H105.975C106.26 25.3887 106.533 25.4924 106.777 25.6467C107.021 25.801 107.232 26.0027 107.396 26.24C107.561 26.4772 107.677 26.7451 107.736 27.0278C107.795 27.3105 107.797 27.6022 107.741 27.8856C106.805 32.4037 106.164 36.9782 105.823 41.5798C105.437 48.2728 105.699 53.5398 105.543 55.1544L87.437 54.8232C86.632 38.4564 88.1914 31.0504 89.3644 27.3474Z" fill="white" style="fill:white;fill-opacity:1;"/>
<path d="M101.633 24.5552C100.713 28.0834 94.8981 34.3348 94.1943 44.1558C94.4519 49.5424 94.2357 53.2178 94.8981 56.8242L105.984 56.5298C106.154 54.8232 104.899 49.3354 105.722 43.774C106.522 38.3828 107.659 31.0504 108.303 27.7752C108.358 27.4779 108.355 27.1726 108.293 26.8766C108.231 26.5807 108.111 26.2999 107.94 26.0503C107.769 25.8008 107.55 25.5874 107.297 25.4224C107.043 25.2574 106.76 25.1441 106.463 25.0888H106.421C105.271 24.9002 103.831 24.6978 102.419 24.6058L101.633 24.5552Z" fill="#264949" style="fill:#264949;fill:color(display-p3 0.1490 0.2863 0.2863);fill-opacity:1;"/>
<path opacity="0.2" d="M104.218 51.2261C104.2 51.2257 104.183 51.2214 104.167 51.2135C104.151 51.2055 104.137 51.1941 104.126 51.1801C102.974 49.659 102.071 47.9651 101.449 46.1615C101.444 46.147 101.442 46.1316 101.443 46.1163C101.444 46.101 101.448 46.0861 101.455 46.0724C101.461 46.0586 101.471 46.0464 101.483 46.0365C101.494 46.0265 101.508 46.0189 101.522 46.0143C101.552 46.0056 101.584 46.0089 101.612 46.0235C101.639 46.0381 101.66 46.0628 101.67 46.0925C102.281 47.8723 103.172 49.5431 104.31 51.0421C104.328 51.0665 104.336 51.0971 104.332 51.1273C104.327 51.1575 104.311 51.1848 104.287 51.2031C104.266 51.2168 104.243 51.2247 104.218 51.2261V51.2261Z" fill="white" style="fill:white;fill-opacity:1;"/>
<path opacity="0.3" d="M105.608 31.9014C104.816 35.1214 105.088 39.5788 105.746 43.6452C106.422 39.082 107.337 33.1572 107.986 29.4864C107.218 28.962 106.233 29.3346 105.608 31.9014Z" fill="black" style="fill:black;fill-opacity:1;"/>
<path d="M88.4355 27.4119C88.6405 26.784 89.0052 26.2201 89.4939 25.7758C89.9827 25.3314 90.5785 25.0218 91.2231 24.8773C92.4326 24.7094 93.6503 24.6065 94.8709 24.5691C93.8405 27.9087 94.4431 37.6837 94.8985 45.3979C93.5185 49.2895 93.6243 52.1461 93.6013 56.8243L86.0159 56.1619C85.1879 38.9993 87.2993 30.5307 88.4355 27.4119Z" fill="#264949" style="fill:#264949;fill:color(display-p3 0.1490 0.2863 0.2863);fill-opacity:1;"/>
<path d="M94.8113 24.7208C97.0606 24.2332 97.4792 22.8808 97.355 21.3352C97.3272 20.9536 97.2749 20.5741 97.1986 20.199L100.046 17.899L102.134 16.2292C101.518 18.6948 100.791 23.2028 102.438 24.8864C102.438 24.8864 101.007 27.145 97.1848 26.869C93.9511 26.6574 94.8113 24.7208 94.8113 24.7208Z" fill="#FFB573" style="fill:#FFB573;fill:color(display-p3 1.0000 0.7098 0.4510);fill-opacity:1;"/>
<path d="M98.169 26.3218L97.5342 26.9106L99.4938 27.6512L99.2592 26.9014L98.169 26.3218Z" fill="#E0E0E0" style="fill:#E0E0E0;fill:color(display-p3 0.8792 0.8792 0.8792);fill-opacity:1;"/>
<path d="M98.882 28.6632C98.882 28.6632 98.8819 26.7358 98.1689 26.3218C99.6301 25.973 100.972 25.241 102.056 24.2012L103.22 24.6612C103.22 24.6612 102.792 26.8876 98.882 28.6632Z" fill="#F5F5F5" style="fill:#F5F5F5;fill:color(display-p3 0.9608 0.9608 0.9608);fill-opacity:1;"/>
<path d="M97.0878 26.1699L97.534 26.9105L95.4502 27.0899L95.8826 26.4321L97.0878 26.1699Z" fill="#E0E0E0" style="fill:#E0E0E0;fill:color(display-p3 0.8792 0.8792 0.8792);fill-opacity:1;"/>
<path d="M95.3172 28.2675C95.4237 27.8019 95.6401 27.3687 95.9482 27.0038C96.2562 26.6389 96.6471 26.353 97.0882 26.1699C95.9658 25.8341 95.9336 24.2747 95.9336 24.2747L94.8342 24.4863C94.8342 24.4863 93.7072 26.5655 95.3172 28.2675Z" fill="#F5F5F5" style="fill:#F5F5F5;fill:color(display-p3 0.9608 0.9608 0.9608);fill-opacity:1;"/>
<path opacity="0.2" d="M97.1982 20.1991C97.2748 20.5741 97.3271 20.9536 97.3546 21.3353C98.4034 21.1421 99.8202 20.0565 99.9858 18.9893C100.046 18.637 100.066 18.279 100.046 17.9221L97.1982 20.1991Z" fill="black" style="fill:black;fill-opacity:1;"/>
<path d="M93.3576 8.92456C93.0296 9.53176 92.871 10.216 92.8986 10.9056C92.9261 11.5952 93.1387 12.2646 93.514 12.8438L95.768 10.0378L93.3576 8.92456Z" fill="#263238" style="fill:#263238;fill:color(display-p3 0.1490 0.1961 0.2196);fill-opacity:1;"/>
<path d="M102.452 12.0387C102.291 15.4059 102.369 17.3747 100.699 19.1825C100.163 19.7736 99.4752 20.2071 98.7106 20.4363C97.946 20.6654 97.1334 20.6814 96.3604 20.4826C95.5873 20.2837 94.8832 19.8776 94.3241 19.308C93.7649 18.7385 93.3718 18.027 93.1873 17.2505C92.4283 14.2697 92.8147 9.26486 96.0761 7.76986C96.7739 7.42807 97.5494 7.27566 98.3247 7.32791C99.1 7.38015 99.848 7.63522 100.494 8.06755C101.139 8.49987 101.66 9.09429 102.004 9.79124C102.347 10.4882 102.502 11.2632 102.452 12.0387V12.0387Z" fill="#FFB573" style="fill:#FFB573;fill:color(display-p3 1.0000 0.7098 0.4510);fill-opacity:1;"/>
<path d="M104.522 8.57026C103.068 3.91507 88.5737 1.50927 94.1949 9.38446L100.359 8.54266L100.589 10.1251C100.903 11.3632 101.325 12.5715 101.849 13.7361L101.592 15.1667L101.859 17.4943C101.859 17.4943 104.421 14.6515 105.718 13.3037C107.659 11.2981 105.69 8.45526 104.522 8.57026Z" fill="#263238" style="fill:#263238;fill:color(display-p3 0.1490 0.1961 0.2196);fill-opacity:1;"/>
<path d="M93.4769 9.4902C95.0869 10.677 99.2959 10.9024 99.2959 10.9024C99.0081 10.2804 98.5663 9.74211 98.0125 9.3384C99.7007 10.4332 101.2 11.6936 104.02 11.7994C103.643 10.7578 103.058 9.8039 102.3 8.9957C101.542 8.18749 100.628 7.54189 99.6133 7.09821C96.2185 5.57561 90.4547 7.2684 93.4769 9.4902Z" fill="#263238" style="fill:#263238;fill:color(display-p3 0.1490 0.1961 0.2196);fill-opacity:1;"/>
<path d="M103.845 4.44873C103.845 4.44873 103.22 4.87193 103.077 6.34393C102.934 7.81593 104.425 9.71573 104.425 9.71573L104.793 8.77273C103.399 6.97413 103.845 4.44873 103.845 4.44873Z" fill="#263238" style="fill:#263238;fill:color(display-p3 0.1490 0.1961 0.2196);fill-opacity:1;"/>
<path d="M103.394 14.5778C103.107 15.2486 102.597 15.7995 101.95 16.1372C101.127 16.542 100.69 15.7968 100.901 14.886C101.09 14.0672 101.752 12.8712 102.589 12.8436C103.427 12.816 103.753 13.7314 103.394 14.5778Z" fill="#FFB573" style="fill:#FFB573;fill:color(display-p3 1.0000 0.7098 0.4510);fill-opacity:1;"/>
<path d="M97.3086 13.2899C97.3086 13.5613 97.1706 13.7913 96.9959 13.8005C96.8211 13.8097 96.6693 13.5935 96.6647 13.3175C96.6601 13.0415 96.8027 12.8161 96.9821 12.8069C97.1614 12.7977 97.304 13.0001 97.3086 13.2899Z" fill="#263238" style="fill:#263238;fill:color(display-p3 0.1490 0.1961 0.2196);fill-opacity:1;"/>
<path d="M94.25 13.4601C94.25 13.7361 94.112 13.9615 93.9326 13.9707C93.7532 13.9799 93.606 13.7637 93.606 13.5107C93.606 13.2577 93.744 13.0093 93.9188 13.0001C94.0936 12.9909 94.2224 13.1657 94.25 13.4601Z" fill="#263238" style="fill:#263238;fill:color(display-p3 0.1490 0.1961 0.2196);fill-opacity:1;"/>
<path d="M95.2798 13.46C94.9658 14.3135 94.5389 15.1211 94.0103 15.8612C94.2012 15.9857 94.4172 16.0668 94.643 16.0986C94.8687 16.1304 95.0987 16.1122 95.3166 16.0452L95.2798 13.46Z" fill="#ED893E" style="fill:#ED893E;fill:color(display-p3 0.9294 0.5373 0.2431);fill-opacity:1;"/>
<path d="M96.4393 16.7261C96.7525 16.6784 97.0528 16.5672 97.3217 16.3996C97.5906 16.2319 97.8225 16.0112 98.0032 15.7509C98.0141 15.733 98.0177 15.7117 98.0134 15.6912C98.0092 15.6707 97.9973 15.6526 97.9802 15.6405C97.9713 15.6348 97.9612 15.6309 97.9507 15.6292C97.9402 15.6275 97.9294 15.6279 97.9191 15.6305C97.9088 15.6331 97.899 15.6378 97.8906 15.6442C97.8821 15.6507 97.8751 15.6588 97.8698 15.6681C97.6646 15.9423 97.4008 16.1671 97.0976 16.3263C96.7944 16.4855 96.4594 16.5749 96.1173 16.5881C96.0957 16.5904 96.0758 16.6006 96.0613 16.6168C96.0469 16.6329 96.0389 16.6539 96.0391 16.6755C96.0413 16.6959 96.0511 16.7146 96.0663 16.7282C96.0816 16.7418 96.1014 16.7492 96.1219 16.7491C96.2281 16.749 96.3341 16.7413 96.4393 16.7261Z" fill="#263238" style="fill:#263238;fill:color(display-p3 0.1490 0.1961 0.2196);fill-opacity:1;"/>
<path d="M98.6978 12.1168C98.7246 12.1121 98.7498 12.1011 98.7714 12.0846C98.8042 12.0577 98.825 12.0189 98.8293 11.9766C98.8336 11.9344 98.821 11.8922 98.7944 11.8592C98.6412 11.6587 98.4411 11.499 98.2117 11.3939C97.9823 11.2888 97.7307 11.2417 97.4788 11.2566C97.456 11.2564 97.4334 11.2611 97.4125 11.2703C97.3916 11.2795 97.3729 11.293 97.3577 11.31C97.3424 11.327 97.3309 11.347 97.324 11.3688C97.3171 11.3905 97.3148 11.4135 97.3175 11.4361C97.3201 11.4588 97.3275 11.4807 97.3392 11.5003C97.351 11.5198 97.3667 11.5367 97.3854 11.5498C97.4042 11.5628 97.4255 11.5717 97.4479 11.5759C97.4703 11.5801 97.4934 11.5794 97.5156 11.574C97.7115 11.5635 97.9071 11.5997 98.0863 11.6797C98.2655 11.7597 98.423 11.8811 98.546 12.034C98.5599 12.0616 98.5818 12.0844 98.609 12.0991C98.6361 12.1139 98.6671 12.1201 98.6978 12.1168Z" fill="#263238" style="fill:#263238;fill:color(display-p3 0.1490 0.1961 0.2196);fill-opacity:1;"/>
<path d="M92.8699 12.4803C92.8958 12.4759 92.9203 12.4652 92.9411 12.4492C92.962 12.4331 92.9786 12.4122 92.9895 12.3883C93.072 12.1967 93.1982 12.0271 93.3579 11.8929C93.5177 11.7587 93.7066 11.6637 93.9095 11.6155C93.9302 11.6122 93.95 11.6047 93.9678 11.5936C93.9855 11.5825 94.0008 11.5679 94.0129 11.5508C94.0249 11.5336 94.0333 11.5142 94.0377 11.4937C94.0421 11.4732 94.0423 11.4521 94.0383 11.4315C94.0315 11.3894 94.0084 11.3518 93.9739 11.3268C93.9394 11.3018 93.8964 11.2915 93.8543 11.2981C93.6046 11.3594 93.3725 11.4777 93.1762 11.6437C92.9799 11.8097 92.8247 12.0189 92.7227 12.2549C92.7108 12.2812 92.7063 12.3103 92.7095 12.339C92.7127 12.3677 92.7236 12.395 92.741 12.418C92.7584 12.4411 92.7817 12.459 92.8084 12.47C92.8352 12.4809 92.8643 12.4845 92.8929 12.4803H92.8699Z" fill="#263238" style="fill:#263238;fill:color(display-p3 0.1490 0.1961 0.2196);fill-opacity:1;"/>
<path d="M108.818 27.0852C109.126 27.7752 109.388 28.4008 109.641 29.0586C109.894 29.7164 110.147 30.3696 110.386 31.0274C110.846 32.343 111.307 33.6816 111.675 35.0386C112.5 37.8057 113.034 40.6518 113.266 43.5302C113.42 46.311 113.42 49.0983 113.266 51.8792C113.133 54.6392 112.917 57.3394 112.553 60.0672C112.505 60.425 112.328 60.7529 112.055 60.9893C111.782 61.2256 111.432 61.3542 111.071 61.3508C110.71 61.3474 110.363 61.2123 110.094 60.9708C109.826 60.7294 109.655 60.3982 109.614 60.0396C109.315 57.3532 109.08 54.6576 108.836 51.985C108.717 50.6479 108.588 49.3185 108.45 47.9968C108.326 46.6766 108.16 45.3656 107.99 44.119C107.549 41.6186 106.909 39.1574 106.076 36.759C105.662 35.5308 105.235 34.298 104.779 33.079C104.324 31.86 103.836 30.6088 103.399 29.4542L103.371 29.3898C103.106 28.6716 103.128 27.8786 103.433 27.1762C103.737 26.4737 104.302 25.9161 105.008 25.6195C105.713 25.3228 106.507 25.3102 107.222 25.5841C107.937 25.858 108.518 26.3974 108.846 27.0898L108.818 27.0852Z" fill="#263238" style="fill:#263238;fill:color(display-p3 0.1490 0.1961 0.2196);fill-opacity:1;"/>
<path d="M109.66 59.8373L107.742 60.7573L110.994 61.9211C110.994 61.9211 113.197 61.2265 112.162 60.0121L111.583 59.8281C110.64 59.5107 110.175 59.5429 109.66 59.8373Z" fill="#FFB573" style="fill:#FFB573;fill:color(display-p3 1.0000 0.7098 0.4510);fill-opacity:1;"/>
<path d="M106.642 62.818L110.078 63.4758L110.994 61.9026L107.741 60.7388L106.642 62.818Z" fill="#FFB573" style="fill:#FFB573;fill:color(display-p3 1.0000 0.7098 0.4510);fill-opacity:1;"/>
<path d="M58.8231 2.01392H43.3901V2.52912H58.8231V2.01392Z" fill="#093770" style="fill:#093770;fill:color(display-p3 0.0353 0.2157 0.4392);fill-opacity:1;"/>
<path d="M34.8572 4.72331L34.48 4.36911C35.1878 3.61595 36.0433 3.01684 36.993 2.60922C37.9428 2.20161 38.9664 1.99426 40 2.00012V2.51072C39.0366 2.50531 38.0824 2.69906 37.1975 3.07981C36.3125 3.46057 35.5157 4.0201 34.8572 4.72331Z" fill="#093770" style="fill:#093770;fill:color(display-p3 0.0353 0.2157 0.4392);fill-opacity:1;"/>
<path d="M38.9007 3.79978H68.4051C70.0672 3.82691 71.6594 4.47334 72.8701 5.61254C74.0808 6.75175 74.8228 8.30173 74.9509 9.95917L76.0687 27.6232L70.3371 27.6278H40.4095C38.7485 27.6006 35.8993 28.1383 34.6895 27C33.4796 25.8617 33.9963 23.1292 33.8683 21.473L33.1414 9.97297C33.0796 9.18151 33.1829 8.38582 33.4449 7.63643C33.7069 6.88703 34.1219 6.2003 34.6634 5.61981C35.205 5.03933 35.8613 4.57778 36.5908 4.26446C37.3202 3.95114 38.1068 3.7929 38.9007 3.79978Z" fill="#264949" style="fill:#264949;fill:color(display-p3 0.1490 0.2863 0.2863);fill-opacity:1;"/>
<path d="M50.4832 33.3629H20.9788C20.1853 33.3537 19.3985 33.5095 18.6685 33.8206C17.9384 34.1317 17.281 34.5913 16.7381 35.1701C16.1952 35.7489 15.7786 36.4344 15.5148 37.1828C15.2511 37.9313 15.1458 38.7264 15.2058 39.5177L16.0338 52.4713L16.3926 58.1983L21.7608 52.4713H51.6884C52.4818 52.4793 53.2682 52.3224 53.9977 52.0105C54.7272 51.6986 55.384 51.2385 55.9263 50.6594C56.4687 50.0803 56.8848 49.3948 57.1482 48.6464C57.4117 47.898 57.5168 47.1031 57.4568 46.3119L57.029 39.5177C56.9009 37.8607 56.1587 36.3113 54.9479 35.1728C53.7372 34.0344 52.145 33.3889 50.4832 33.3629V33.3629Z" fill="#093770" style="fill:#093770;fill:color(display-p3 0.0353 0.2157 0.4392);fill-opacity:1;"/>
<path opacity="0.5" d="M50.4832 33.3629H20.9788C20.1853 33.3537 19.3985 33.5095 18.6685 33.8206C17.9384 34.1317 17.281 34.5913 16.7381 35.1701C16.1952 35.7489 15.7786 36.4344 15.5148 37.1828C15.2511 37.9313 15.1458 38.7264 15.2058 39.5177L16.0338 52.4713L16.3926 58.1983L21.7608 52.4713H51.6884C52.4818 52.4793 53.2682 52.3224 53.9977 52.0105C54.7272 51.6986 55.384 51.2385 55.9263 50.6594C56.4687 50.0803 56.8848 49.3948 57.1482 48.6464C57.4117 47.898 57.5168 47.1031 57.4568 46.3119L57.029 39.5177C56.9009 37.8607 56.1587 36.3113 54.9479 35.1728C53.7372 34.0344 52.145 33.3889 50.4832 33.3629V33.3629Z" fill="white" style="fill:white;fill-opacity:1;"/>
<path d="M49.9911 41.7994H22.1059C21.8292 41.7946 21.5642 41.6868 21.3626 41.4971C21.1611 41.3075 21.0374 41.0495 21.0157 40.7736V40.7736C21.0061 40.6419 21.024 40.5096 21.0681 40.3852C21.1122 40.2607 21.1816 40.1467 21.2719 40.0503C21.3622 39.954 21.4715 39.8773 21.5928 39.8253C21.7142 39.7732 21.845 39.7469 21.9771 39.7478H49.8531C50.1306 39.7516 50.3967 39.8588 50.5992 40.0486C50.8018 40.2384 50.9261 40.4969 50.9479 40.7736C50.9574 40.905 50.9396 41.0368 50.8958 41.161C50.852 41.2852 50.7831 41.399 50.6932 41.4952C50.6034 41.5915 50.4947 41.6683 50.3739 41.7206C50.2531 41.7729 50.1227 41.7998 49.9911 41.7994V41.7994Z" fill="white" style="fill:white;fill-opacity:1;"/>
<path d="M40.7956 46.5372H22.3956C22.1184 46.5324 21.8529 46.4248 21.6506 46.2353C21.4483 46.0457 21.3236 45.7877 21.3008 45.5114V45.5114C21.2913 45.3797 21.3092 45.2474 21.3532 45.123C21.3973 44.9985 21.4667 44.8845 21.557 44.7881C21.6473 44.6917 21.7566 44.6151 21.878 44.5631C21.9993 44.511 22.1302 44.4846 22.2622 44.4856H40.6622C40.9396 44.4884 41.2057 44.5955 41.4077 44.7855C41.6097 44.9756 41.7328 45.2347 41.7524 45.5114V45.5114C41.7619 45.6427 41.7442 45.7746 41.7004 45.8988C41.6566 46.023 41.5876 46.1367 41.4978 46.233C41.408 46.3293 41.2993 46.406 41.1785 46.4584C41.0576 46.5107 40.9273 46.5376 40.7956 46.5372V46.5372Z" fill="white" style="fill:white;fill-opacity:1;"/>
<path d="M56.6287 67.4488C56.6712 68.0323 56.9311 68.5786 57.357 68.9798C57.7828 69.3809 58.3437 69.6077 58.9287 69.6154C59.2081 69.6187 59.4851 69.5639 59.7422 69.4545C59.9993 69.345 60.2308 69.1832 60.422 68.9795C60.6132 68.7757 60.7599 68.5344 60.8529 68.2709C60.9458 68.0074 60.9829 67.7274 60.9619 67.4488C60.9172 66.8661 60.6567 66.321 60.2313 65.9202C59.8059 65.5195 59.2462 65.2919 58.6619 65.2822C58.3823 65.2781 58.1049 65.3325 57.8475 65.4417C57.5901 65.551 57.3583 65.7127 57.1669 65.9166C56.9756 66.1205 56.8289 66.3621 56.7362 66.6259C56.6435 66.8898 56.6069 67.17 56.6287 67.4488V67.4488Z" fill="#8AC142" style="fill:#8AC142;fill:color(display-p3 0.5412 0.7569 0.2588);fill-opacity:1;"/>
<path d="M49.4021 68.1758C49.4447 68.7593 49.7046 69.3056 50.1304 69.7067C50.5563 70.1079 51.1171 70.3347 51.7021 70.3424C51.9813 70.3458 52.2582 70.291 52.515 70.1814C52.7719 70.0719 53.0031 69.9101 53.194 69.7063C53.3848 69.5024 53.5311 69.2611 53.6235 68.9975C53.7159 68.734 53.7524 68.4542 53.7307 68.1758C53.6861 67.593 53.4256 67.0479 53.0002 66.6472C52.5747 66.2465 52.0151 66.0189 51.4307 66.0092C51.1515 66.0058 50.8746 66.0606 50.6178 66.1701C50.3609 66.2796 50.1297 66.4415 49.9388 66.6453C49.748 66.8491 49.6017 67.0905 49.5093 67.354C49.4168 67.6175 49.3804 67.8974 49.4021 68.1758V68.1758Z" fill="#8AC142" style="fill:#8AC142;fill:color(display-p3 0.5412 0.7569 0.2588);fill-opacity:1;"/>
<path d="M64.0121 69.2658C64.0567 69.8485 64.3172 70.3936 64.7426 70.7944C65.168 71.1951 65.7277 71.4227 66.3121 71.4324C66.5913 71.4358 66.8682 71.381 67.125 71.2715C67.3819 71.162 67.6131 71.0001 67.804 70.7963C67.9948 70.5924 68.1411 70.3511 68.2335 70.0876C68.3259 69.8241 68.3624 69.5442 68.3407 69.2658C68.2981 68.6823 68.0382 68.136 67.6124 67.7349C67.1865 67.3337 66.6257 67.1069 66.0407 67.0992C65.7617 67.0965 65.4851 67.1518 65.2286 67.2616C64.9721 67.3713 64.7411 67.5332 64.5504 67.7368C64.3597 67.9405 64.2134 68.1816 64.1207 68.4448C64.028 68.708 63.991 68.9876 64.0121 69.2658Z" fill="#8AC142" style="fill:#8AC142;fill:color(display-p3 0.5412 0.7569 0.2588);fill-opacity:1;"/>
<path d="M52.1895 8H51.9004C50.9373 8 50.456 8 50.0654 8.17521C49.7212 8.32965 49.4279 8.57838 49.2189 8.89258C48.9819 9.24902 48.9022 9.72386 48.7439 10.6738L47.8105 16.2738L47.8102 16.2759C47.5967 17.5565 47.49 18.1972 47.6754 18.6965C47.8382 19.1348 48.15 19.5022 48.5557 19.7349C49.0179 20 49.6672 20 50.9668 20H61.4118C62.7114 20 63.3618 20 63.824 19.7349C64.2297 19.5022 64.5407 19.1348 64.7036 18.6965C64.8889 18.1974 64.7822 17.557 64.5689 16.2774L64.5681 16.2738L63.6348 10.6738C63.4764 9.72386 63.3972 9.24902 63.1602 8.89258C62.9512 8.57838 62.6577 8.32965 62.3134 8.17521C61.9229 8 61.4418 8 60.4788 8H60.1895M52.1895 8H60.1895M52.1895 8C52.1895 5.79086 53.9803 4 56.1895 4C58.3986 4 60.1895 5.79086 60.1895 8" stroke="white" style="stroke:white;stroke-opacity:1;" stroke-width="2" stroke-linecap="round" stroke-linejoin="round"/>
<path d="M51.1895 14C51.1895 15.4497 53.9803 15.625 56.1895 15.625C58.3986 15.625 61.6895 15.4497 61.6895 14M44.1895 20.7002V12.3002C44.1895 11.3201 44.1895 10.8297 44.4801 10.4553C44.7358 10.126 45.1434 9.85852 45.6452 9.69074C46.2156 9.5 46.9629 9.5 48.4564 9.5H63.923C65.4165 9.5 66.1622 9.5 66.7326 9.69074C67.2344 9.85852 67.6434 10.126 67.8991 10.4553C68.1895 10.8293 68.1895 11.3191 68.1895 12.2973V20.7031C68.1895 21.6813 68.1895 22.1704 67.8991 22.5444C67.6434 22.8737 67.2344 23.1417 66.7326 23.3094C66.1628 23.5 65.4175 23.5 63.9269 23.5H48.452C46.9614 23.5 46.2151 23.5 45.6452 23.3094C45.1434 23.1417 44.7358 22.8737 44.4801 22.5444C44.1895 22.1701 44.1895 21.6803 44.1895 20.7002Z" stroke="white" style="stroke:white;stroke-opacity:1;" stroke-width="2" stroke-linecap="round" stroke-linejoin="round"/>
</svg>
